<?xml version="1.0" encoding="utf-8"?>
<!-- Generator: Adobe Illustrator 16.0.0, SVG Export Plug-In . SVG Version: 6.00 Build 0)  -->
<!DOCTYPE svg PUBLIC "-//W3C//DTD SVG 1.1//EN" "http://www.w3.org/Graphics/SVG/1.1/DTD/svg11.dtd">
<svg version="1.1" id="Layer_1" xmlns="http://www.w3.org/2000/svg" xmlns:xlink="http://www.w3.org/1999/xlink" x="0px" y="0px"
	 width="720px" height="720px" viewBox="0 0 720 720" enable-background="new 0 0 720 720" xml:space="preserve">
<g>
	<polygon points="161.165,126.166 139.052,208.695 661.74,208.695 683.854,126.166 	"/>
	<polygon points="579.934,511.305 524.913,511.305 442.383,511.305 428.628,511.305 401.118,511.305 305.555,511.305 
		335.039,401.265 472.592,401.265 457.487,456.285 539.862,456.285 577.234,318.735 522.213,318.735 494.705,318.735 
		357.153,318.735 379.268,236.206 296.738,236.206 274.624,318.735 164.585,318.735 142.472,401.265 252.509,401.265 
		223.024,511.305 57.967,511.305 35.854,593.834 558.543,593.834 580.655,511.305 	"/>
</g>
</svg>
