<?xml version="1.0" encoding="utf-8"?>
<!-- Generator: Adobe Illustrator 16.0.0, SVG Export Plug-In . SVG Version: 6.00 Build 0)  -->
<!DOCTYPE svg PUBLIC "-//W3C//DTD SVG 1.1//EN" "http://www.w3.org/Graphics/SVG/1.1/DTD/svg11.dtd">
<svg version="1.1" id="idea3" xmlns="http://www.w3.org/2000/svg" xmlns:xlink="http://www.w3.org/1999/xlink" x="0px" y="0px"
	 width="1080px" height="360px" viewBox="0 0 1080 360" enable-background="new 0 0 1080 360" xml:space="preserve">
<g display="none">
	<polygon display="inline" points="841.996,387 827.527,441 1169.527,441 1183.996,387 	"/>
	<polygon display="inline" points="1026,639 999,639 936.472,639 955.764,567 1045.766,567 1030.941,621 1084.891,621 1114.234,513 
		1078.233,513 1060.234,513 970.233,513 984.703,459 930.703,459 916.233,513 844.234,513 829.766,567 901.764,567 882.472,639 
		774.473,639 760.004,693 1102.004,693 1116.473,639 1080,639 	"/>
</g>
<g>
	<polygon points="156.85,27 142.381,81 484.381,81 498.85,27 	"/>
	<polygon points="430.854,279 394.854,279 340.854,279 331.854,279 313.854,279 251.325,279 270.617,207 360.619,207 350.736,243 
		404.635,243 429.088,153 393.087,153 375.088,153 285.087,153 299.557,99 245.557,99 231.087,153 159.088,153 144.619,207 
		216.617,207 197.325,279 89.326,279 74.857,333 416.857,333 431.326,279 	"/>
</g>
<g>
	<polygon points="489.374,136.537 578.694,136.537 584.704,114.11 517.881,114.11 524.396,89.793 562.146,89.793 568.284,66.884 
		530.535,66.884 535.243,49.313 600.462,49.313 606.471,26.886 518.755,26.886 	"/>
	<polygon points="706.61,26.886 652.031,107.891 640.076,26.886 616.191,26.886 631.328,136.537 657.808,136.537 731.703,26.886 	
		"/>
	<path d="M758.588,26.886l-81.258,109.65h25.169l17.527-23.452h53.438l4.639,23.452h24.723l-22.5-109.65H758.588z M768.809,90.336
		h-32.241l25.301-33.992L768.809,90.336z"/>
	<polygon points="919.534,26.886 899.853,100.34 860.809,27.421 860.521,26.886 839.059,26.886 809.676,136.537 832.176,136.537 
		851.649,63.862 890.907,136.008 891.193,136.537 912.975,136.537 942.354,26.886 	"/>
	<path d="M566.317,333.072H436.163l43.032-160.596h30.441l-34.875,130.154h99.713L566.317,333.072z"/>
	<path d="M715.111,333.072h-33.796l-6.922-34.995h-81.736l-26.156,34.995h-33.796L651.72,172.477h30.441L715.111,333.072z
		 M668.058,267.155l-11.403-55.848l-41.57,55.848H668.058z"/>
	<path d="M870.62,172.604c0,0-19.836,75.015-22.055,82.305c-4.439,14.585-10.056,26.561-16.171,32.676
		c-10.67,10.671-21.412,14.81-28.665,16.387c-7.253,1.578-12.172,1.185-13.21,1.185c-7.992,0-14.955-1.995-20.913-5.992
		c-5.966-3.991-9.959-9.349-11.998-16.059c-2.188-7.349-1.95-15.979,0.705-25.888l22.672-84.613h-30.441l-22.673,84.613
		c-4.238,15.819-4.608,29.723-1.106,41.707c3.39,11.188,10.173,20.176,20.339,26.965c10.165,6.794,21.865,10.188,35.131,10.188
		c13.263,0,32.182-3.394,45.83-10.188c13.644-6.789,26.846-17.12,35.163-29.004c8.372-11.96,13.421-24.802,17.601-39.668
		c4.18-14.865,22.67-84.613,22.67-84.613H870.62z"/>
</g>
<text transform="matrix(1 0 0 1 315 450)" display="none" font-family="'mplus-2p-medium'" font-size="120">劉智穎</text>
</svg>
